<?xml version="1.0" encoding="utf-8"?>
<!-- Generator: Adobe Illustrator 22.0.0, SVG Export Plug-In . SVG Version: 6.00 Build 0)  -->
<svg version="1.1" id="Camada_1" xmlns="http://www.w3.org/2000/svg" xmlns:xlink="http://www.w3.org/1999/xlink" x="0px" y="0px"
	 viewBox="0 0 351.7 203.9" style="enable-background:new 0 0 351.7 203.9;" xml:space="preserve">
<style type="text/css">
	.st0{fill:#FFFFFF;}
</style>
<g>
	<g>
		<path class="st0" d="M65.1,178.8v-7.4c0-1.8,0.6-3.2,1.9-4.3s2.9-1.5,5-1.5c2.1,0,3.8,0.5,5,1.4c1.2,0.9,1.9,2.1,1.9,3.6v6.8
			c0,0.7-0.5,1.1-1.4,1.4c-0.5,0.1-1,0.2-1.5,0.2c-0.5,0-1-0.1-1.5-0.2c0.1-0.9,0.2-1.8,0.2-2.8v-4.6c0-0.7-0.2-1.2-0.7-1.6
			c-0.5-0.4-1.1-0.6-1.9-0.6c-0.8,0-1.4,0.2-1.8,0.6c-0.5,0.4-0.7,0.9-0.7,1.6v6.4c0,1.3,0.4,2.2,1.3,2.7l5.8,3.7
			c1.6,1,2.5,2.6,2.5,4.7v7.5c0,1.8-0.6,3.2-1.9,4.3s-3,1.5-5,1.5c-2.1,0-3.8-0.5-5-1.4c-1.3-0.9-1.9-2.1-1.9-3.6v-6.8
			c0-0.7,0.5-1.1,1.4-1.4c0.5-0.1,1-0.2,1.5-0.2c0.5,0,1,0.1,1.5,0.2c-0.1,0.9-0.2,1.8-0.2,2.8v4.6c0,0.7,0.3,1.2,0.8,1.6
			c0.5,0.4,1.1,0.6,1.9,0.6c0.8,0,1.4-0.2,1.9-0.6c0.5-0.4,0.7-0.9,0.7-1.6v-6.2c0-1.4-0.5-2.4-1.5-3.1l-5.8-3.8
			C65.9,182.5,65.1,181,65.1,178.8z"/>
		<path class="st0" d="M113.5,166.2c1.3,0,2.3-0.1,2.9-0.3c0.3,1,0.4,2,0.4,3c0,0.6-0.3,0.9-0.8,0.9h-4.3v26.7l0.2,5.1
			c-1.2,0.2-2.5,0.3-3.7,0.3c-0.6,0-0.9-0.3-0.9-0.9v-31.2H106c-1.3,0-2.3,0.1-2.9,0.3c-0.3-1-0.4-2-0.4-3c0-0.6,0.3-0.9,0.8-0.9
			H113.5z"/>
		<path class="st0" d="M150.8,170.7c0-1.8-0.1-3.3-0.4-4.5c1.2-0.1,2.5-0.2,3.8-0.2c0.6,0,0.9,0.3,0.9,0.8V197
			c0,0.8,0.1,1.3,0.4,1.6s0.8,0.5,1.6,0.5c0,0.9-0.2,1.7-0.7,2.2c-0.5,0.5-1.3,0.8-2.3,0.8c-1.5,0-2.5-0.6-2.9-1.7
			c-1,1.1-2.4,1.7-4.2,1.7c-3.7,0-5.6-1.7-5.6-5.2v-26.1c0-0.8-0.2-1.3-0.5-1.6c-0.3-0.3-0.8-0.5-1.6-0.5c0-2.1,1.2-3.1,3.5-3.1
			c1.9,0,2.9,1.3,2.9,3.8v27.2c0,1.3,0.7,2,2,2c1.3,0,2.4-0.6,3.1-1.9V170.7z"/>
		<path class="st0" d="M189.8,166.2c3.6,0,5.4,1.8,5.4,5.3v24.3c0,1.8-0.6,3.2-1.9,4.3s-3,1.5-5.1,1.5h-6.7v-30.2
			c0-0.8-0.1-1.4-0.4-1.7s-0.8-0.5-1.6-0.5c0-0.9,0.2-1.7,0.8-2.2s1.4-0.8,2.6-0.8c1.2,0,2.1,0.6,2.5,1.8
			C186.9,166.8,188.3,166.2,189.8,166.2z M188.8,169.8c-1,0-2,0.5-2.9,1.5v26.8h2.5c0.8,0,1.4-0.2,1.9-0.6c0.5-0.4,0.7-0.9,0.7-1.6
			v-24C190.9,170.5,190.2,169.8,188.8,169.8z"/>
		<path class="st0" d="M220.8,201v-29.7l-0.2-5.1c1.2-0.2,2.5-0.3,3.7-0.3c0.6,0,0.9,0.3,0.9,0.9v29.7l0.2,5.1
			c-1.2,0.2-2.5,0.3-3.7,0.3C221.1,201.9,220.8,201.6,220.8,201z"/>
		<path class="st0" d="M250.8,196.7v-25.2c0-1.8,0.6-3.2,1.9-4.3c1.2-1,2.9-1.5,5.1-1.5c2.1,0,3.8,0.5,5,1.4
			c1.2,0.9,1.8,2.3,1.8,4.1v25.2c0,1.8-0.6,3.2-1.9,4.3s-3,1.5-5.1,1.5s-3.8-0.5-5-1.4C251.4,199.9,250.8,198.5,250.8,196.7z
			 M255.1,171.5v25c0,0.7,0.2,1.2,0.7,1.6c0.5,0.4,1.1,0.6,1.8,0.6s1.4-0.2,1.9-0.6s0.7-0.9,0.7-1.6v-25c0-0.7-0.2-1.2-0.7-1.6
			c-0.5-0.4-1.1-0.6-1.9-0.6s-1.4,0.2-1.8,0.6C255.3,170.2,255.1,170.8,255.1,171.5z"/>
	</g>
	<g>
		<path class="st0" d="M180.3,141.7c0,3.5-1,6.9-2.8,9.9l-9.5,15.5l-9.5-15.5c-1.8-3-2.8-6.4-2.8-9.9v-13.3L2.5,162.5v22h340.7v-22
			l-163-34.2V141.7z M181.5,129.8L342,163.5v19.8H3.7v-19.8l150.9-33.6v11.8c0,3.7,1,7.3,2.9,10.5l10.5,17.2l10.5-17.2
			c1.9-3.2,2.9-6.8,2.9-10.5V129.8z"/>
		<path class="st0" d="M16,63.4c0-0.5,0.2-1,0.5-1.3c0.4-0.4,0.8-0.6,1.3-0.6H23c0.5,0,0.9,0.2,1.3,0.6c0.4,0.4,0.5,0.8,0.5,1.3V154
			l13.5-2.9V63.4c0-0.5,0.2-1,0.5-1.3c0.4-0.4,0.8-0.6,1.3-0.6h5.2c0.5,0,0.9,0.2,1.3,0.6c0.4,0.4,0.5,0.8,0.5,1.3v85.7l13.5-3V64.5
			c0-8.5-4-12.7-11.9-12.7h-7.1c-4.8,0-8.2,1.5-10,4.6c-2-3.1-5.3-4.6-10-4.6h-7.1c-8,0-11.9,4.2-11.9,12.7V159l13.5-2.9V63.4z"/>
		<path class="st0" d="M78.3,142c0.4,0,0.8,0,1.2-0.1l15.8-3.5c8.8-2,8.4-9.8,8.4-12.1V83.4c0-8.5-4-12.7-11.9-12.7H78.9
			c-8,0-11.9,4.2-11.9,12.7v45.8C66.9,137.5,70.7,141.8,78.3,142z M80.4,81.8c0-0.5,0.2-1,0.5-1.3c0.4-0.4,0.8-0.6,1.3-0.6h6.1
			c0.5,0,0.9,0.2,1.3,0.6c0.4,0.4,0.5,0.8,0.5,1.3v47.3c0,0.5-0.2,1-0.5,1.3c-0.4,0.4-0.8,0.6-1.3,0.6h-6.1c-0.5,0-0.9-0.2-1.3-0.6
			c-0.4-0.4-0.5-0.8-0.5-1.3V81.8z"/>
		<path class="st0" d="M123.4,82.3c0-0.5,0.2-1,0.5-1.3c0.4-0.4,0.8-0.6,1.3-0.6h5.2c0.5,0,0.9,0.2,1.3,0.6c0.4,0.4,0.5,0.8,0.5,1.3
			l-0.1,47.9l13.6-3V83.4c0-8.5-4-12.7-11.9-12.7h-11.9c-8,0-11.9,4.2-11.9,12.7v51.7l13.5-3V82.3z"/>
		<path class="st0" d="M189.9,83.4v43.4l13.5,2.8v-16.6h9.7v18.6l13.5,2.8V83.4c0-8.5-4-12.7-11.9-12.7h-12.8
			C193.9,70.7,189.9,74.9,189.9,83.4z M203.4,81.8c0-0.5,0.2-1,0.5-1.3c0.4-0.4,0.8-0.6,1.3-0.6h6.1c0.5,0,0.9,0.2,1.3,0.6
			c0.4,0.4,0.5,0.8,0.5,1.3v20.9h-9.7V81.8z"/>
		<path class="st0" d="M246.3,82.3c0-0.5,0.2-1,0.5-1.3c0.4-0.4,0.8-0.6,1.3-0.6h5.2c0.5,0,0.9,0.2,1.3,0.6c0.4,0.4,0.5,0.8,0.5,1.3
			v58.3l13.5,2.7V83.4c0-8.5-4-12.7-11.9-12.7h-11.9c-8,0-11.9,4.2-11.9,12.7v52.4l13.5,2.8V82.3z"/>
		<rect x="162.1" y="25.7" class="st0" width="11.9" height="16.5"/>
		<path class="st0" d="M160.9,20.7c0.6,1,1.6,1.6,2.8,1.6h8.7c1.1,0,2.2-0.6,2.8-1.6l4.3-7.5c0.6-1,0.6-2.2,0-3.2l-4.3-7.5
			c-0.6-1-1.6-1.6-2.8-1.6h-8.7c-1.1,0-2.2,0.6-2.8,1.6l-4.3,7.5c-0.6,1-0.6,2.2,0,3.2L160.9,20.7z"/>
		<path class="st0" d="M332.2,61.1h11v-11H325c-5.6,0-10.2,4.6-10.2,10.2v92.9l28.4,5.8v-12.4h-14.9v-38.4h14V97.6h-14V65
			C328.3,62.9,330.1,61.1,332.2,61.1z"/>
		<path class="st0" d="M285,83.1v63.7l13.5,2.8V83.1h13V71.7h-42.9c2.4,2.7,3.6,6.6,3.7,11.5H285z"/>
		<path class="st0" d="M159.5,57v18.7l-4.7,4.7l4.7,4.7v56.7c0,2.8,0.8,5.6,2.2,8l6.4,10.4l6.4-10.4c1.5-2.4,2.2-5.2,2.2-8V85.1
			l4.8-4.8l-4.8-4.8V57h26.7c0-6.3-5.1-11.5-11.5-11.5H143c-6.3,0-11.4,5.1-11.3,11.4l0,0H159.5z"/>
	</g>
</g>
</svg>
